<svg width="16" height="16" viewBox="0 0 16 16" fill="none" xmlns="http://www.w3.org/2000/svg">
<path d="M3.13256 2.96758C4.43674 1.70262 6.18314 0.996672 8 1.00001C9.85652 1.00001 11.637 1.73751 12.9498 3.05026C14.2625 4.36302 15 6.14349 15 8.00001C15 9.85652 14.2625 11.637 12.9498 12.9498C11.637 14.2625 9.85652 15 8 15C6.14349 15 4.36302 14.2625 3.05027 12.9498C1.73751 11.637 1.00001 9.85652 1.00001 8.00001C0.99889 7.09125 1.17526 6.19102 1.51917 5.34985" stroke="white" stroke-linecap="round" stroke-linejoin="round"/>
<path d="M9.17188 6L10.9996 8.19328L9.17188 10.021" stroke="white" stroke-linecap="round" stroke-linejoin="round"/>
<path d="M5 8.1933H10.4832" stroke="white" stroke-linecap="round" stroke-linejoin="round"/>
</svg>
