<svg width="29" height="29" viewBox="0 0 29 29" fill="none" xmlns="http://www.w3.org/2000/svg">
<path d="M14.2352 19.9371C15.8908 19.9371 17.233 18.5949 17.233 16.9393C17.233 15.2836 15.8908 13.9414 14.2352 13.9414C12.5795 13.9414 11.2373 15.2836 11.2373 16.9393C11.2373 18.5949 12.5795 19.9371 14.2352 19.9371Z" stroke="white" stroke-miterlimit="10" stroke-linecap="round" stroke-linejoin="round"/>
<path d="M7.50781 28.1995C7.50781 24.4705 10.5057 21.4726 14.2347 21.4726C17.9637 21.4726 20.9616 24.4705 20.9616 28.1995" stroke="white" stroke-miterlimit="10" stroke-linecap="round" stroke-linejoin="round"/>
<path d="M23.0821 20.0831C24.3339 20.0831 25.3488 19.0683 25.3488 17.8165C25.3488 16.5646 24.3339 15.5498 23.0821 15.5498C21.8303 15.5498 20.8154 16.5646 20.8154 17.8165C20.8154 19.0683 21.8303 20.0831 23.0821 20.0831Z" stroke="white" stroke-miterlimit="10" stroke-linecap="round" stroke-linejoin="round"/>
<path d="M20.9614 21.7649C21.6195 21.4724 22.3507 21.3262 23.0819 21.3262C25.9335 21.3262 28.2001 23.5928 28.2001 26.4445" stroke="white" stroke-miterlimit="10" stroke-linecap="round" stroke-linejoin="round"/>
<path d="M6.11823 20.0831C7.37008 20.0831 8.3849 19.0683 8.3849 17.8165C8.3849 16.5646 7.37008 15.5498 6.11823 15.5498C4.86639 15.5498 3.85156 16.5646 3.85156 17.8165C3.85156 19.0683 4.86639 20.0831 6.11823 20.0831Z" stroke="white" stroke-miterlimit="10" stroke-linecap="round" stroke-linejoin="round"/>
<path d="M1 26.3712C1 23.5196 3.26667 21.2529 6.11829 21.2529C6.84947 21.2529 7.50754 21.3992 8.09248 21.6185" stroke="white" stroke-miterlimit="10" stroke-linecap="round" stroke-linejoin="round"/>
<path d="M9.04297 12.2605C9.04297 12.1142 9.04297 12.0411 9.04297 11.8949C9.04297 8.82392 11.529 6.33789 14.6 6.33789C17.6709 6.33789 20.157 8.82392 20.157 11.8949" stroke="#04BBF2" stroke-miterlimit="10" stroke-linecap="round" stroke-linejoin="round"/>
<path d="M25.568 11.8946V9.70109H23.3013C23.0819 8.82367 22.7164 8.01937 22.2776 7.28818L23.8862 5.7527L20.8153 2.68172L19.2067 4.29033C18.4755 3.85162 17.6712 3.48603 16.7938 3.26667V1H12.4798V3.26667C11.6024 3.48603 10.7981 3.85162 10.0669 4.29033L8.45826 2.68172L5.38729 5.7527L6.99589 7.3613C6.55718 8.09248 6.19159 8.89679 5.97224 9.77421H3.70557V12.4796" stroke="#04BBF2" stroke-miterlimit="10" stroke-linecap="round" stroke-linejoin="round"/>
</svg>
