<svg width="24" height="32" viewBox="0 0 24 32" fill="none" xmlns="http://www.w3.org/2000/svg">
<path d="M15.2107 17.316V31.0003H11.6317V24.7897L4.5791 17.7371C5.21068 17.9476 5.84226 18.1582 6.5791 18.1582C7.21068 18.1582 7.737 18.1582 8.15805 18.1582L11.737 21.7371V16.3687C11.9475 16.1582 12.2633 15.8424 12.5791 15.6318C13.6317 16.4739 14.4738 17.0003 15.2107 17.316Z" stroke="white" stroke-miterlimit="10" stroke-linecap="round" stroke-linejoin="round"/>
<path d="M23 12.2632C23 15.3158 20.4737 17.7368 17.5263 17.7368C16.7895 17.7368 16.1579 17.7368 15.2105 17.3158C14.4737 17 13.6316 16.4737 12.4737 15.5263C12.1579 15.8421 11.8421 16.0526 11.6316 16.2632C10.1579 17.5263 9.31579 18.0526 8.05263 18.1579C7.63158 18.1579 7.10526 18.1579 6.47368 18.1579C5.73684 18.1579 5.10526 17.9474 4.47368 17.7368C2.47368 16.8947 1 15 1 12.7895C1 9.94737 3.21053 7.63158 5.94737 7.42105C5.94737 7.21053 5.94737 7.10526 5.94737 6.89474C5.94737 3.63158 8.57895 1 11.8421 1C15.1053 1 17.7368 3.63158 17.7368 6.89474C20.7895 7 23 9.31579 23 12.2632Z" stroke="#04BBF2" stroke-miterlimit="10" stroke-linecap="round" stroke-linejoin="round"/>
</svg>
