<svg width="23" height="24" viewBox="0 0 23 24" fill="none" xmlns="http://www.w3.org/2000/svg">
<path d="M19.6844 7.48242H3.08301V20.3158H19.6844V7.48242Z" stroke="white" stroke-miterlimit="10" stroke-linecap="round" stroke-linejoin="round"/>
<path d="M8.0309 9.64258H5.62207V18.1545H8.0309V9.64258Z" stroke="white" stroke-miterlimit="10" stroke-linecap="round" stroke-linejoin="round"/>
<path d="M12.5885 9.64258H10.1797V18.1545H12.5885V9.64258Z" stroke="white" stroke-miterlimit="10" stroke-linecap="round" stroke-linejoin="round"/>
<path d="M17.1456 9.64258H14.7368V18.1545H17.1456V9.64258Z" stroke="white" stroke-miterlimit="10" stroke-linecap="round" stroke-linejoin="round"/>
<path d="M21.768 23H1V21.625C1 20.9048 1.58593 20.3155 2.30207 20.3155H20.4659C21.1821 20.3155 21.768 20.9048 21.768 21.625V23Z" stroke="white" stroke-miterlimit="10" stroke-linecap="round" stroke-linejoin="round"/>
<path d="M1 7.48214H21.768V6.17262L11.4166 1L1 6.17262V7.48214Z" stroke="#04BBF2" stroke-miterlimit="10" stroke-linecap="round" stroke-linejoin="round"/>
<path d="M11.2568 5.75675C11.9957 5.75675 12.5946 5.15777 12.5946 4.41891C12.5946 3.68004 11.9957 3.08107 11.2568 3.08107C10.5179 3.08107 9.91895 3.68004 9.91895 4.41891C9.91895 5.15777 10.5179 5.75675 11.2568 5.75675Z" stroke="white" stroke-miterlimit="10" stroke-linecap="round" stroke-linejoin="round"/>
</svg>
