<svg width="25" height="33" viewBox="0 0 25 33" fill="none" xmlns="http://www.w3.org/2000/svg">
<path d="M24.0635 31.9997H1C1.34552 29.7538 2.38208 27.6807 3.85054 26.0394C5.92366 23.7072 9.03334 22.1523 12.4885 22.1523C15.9437 22.1523 19.0534 23.7072 21.2129 26.0394C22.6814 27.6807 23.7179 29.7538 24.0635 31.9997Z" stroke="white" stroke-miterlimit="10" stroke-linecap="round" stroke-linejoin="round"/>
<path d="M24.0633 31.9997C23.7178 29.7538 22.6812 27.6807 21.2128 26.0394C19.0533 23.6208 15.9436 22.1523 12.4884 22.1523C11.1063 23.1025 9.98335 24.4846 9.03317 26.0394C8.08299 27.767 7.39195 29.7538 7.13281 31.9997" stroke="white" stroke-miterlimit="10" stroke-linecap="round" stroke-linejoin="round"/>
<path d="M17.8441 31.9997H1C1.34552 29.7538 2.38208 27.6807 3.85054 26.0394C5.92366 23.7072 9.03334 22.1523 12.4885 22.1523C13.8706 23.1025 14.9936 24.4846 15.9437 26.0394C16.9803 27.767 17.6713 29.7538 17.8441 31.9997Z" stroke="white" stroke-miterlimit="10" stroke-linecap="round" stroke-linejoin="round"/>
<path d="M24.0635 32H18.1032H17.8441H7.13298H6.78746H1" stroke="white" stroke-miterlimit="10" stroke-linecap="round" stroke-linejoin="round"/>
<path d="M3.85059 26.0391H7.73769H9.03339H15.9438H17.3259H21.213" stroke="white" stroke-miterlimit="10" stroke-linecap="round" stroke-linejoin="round"/>
<path d="M9.20602 2.11252C12.1429 3.84012 12.4885 7.64084 12.4885 7.64084C12.4885 7.64084 8.08308 8.59102 5.05978 6.77704C2.03648 4.96306 1.77734 1.24872 1.77734 1.24872C1.77734 1.24872 6.2691 0.298542 9.20602 2.11252Z" stroke="#04BBF2" stroke-miterlimit="10" stroke-linecap="round" stroke-linejoin="round"/>
<path d="M16.9803 10.0595C20.1764 8.76381 24.409 10.3187 24.409 10.3187C24.409 10.3187 23.5452 14.033 20.4355 15.3287C17.3258 16.6244 13.0068 15.0696 13.0068 15.0696C13.0068 15.0696 13.8706 11.3552 16.9803 10.0595Z" stroke="#04BBF2" stroke-miterlimit="10" stroke-linecap="round" stroke-linejoin="round"/>
<path d="M12.4883 7.55469V22.1529" stroke="white" stroke-miterlimit="10" stroke-linecap="round" stroke-linejoin="round"/>
</svg>
