<svg width="33" height="19" viewBox="0 0 33 19" fill="none" xmlns="http://www.w3.org/2000/svg">
<path d="M16.2915 7.9278C18.2046 7.9278 19.7554 6.37696 19.7554 4.4639C19.7554 2.55084 18.2046 1 16.2915 1C14.3785 1 12.8276 2.55084 12.8276 4.4639C12.8276 6.37696 14.3785 7.9278 16.2915 7.9278Z" stroke="#04BBF2" stroke-miterlimit="10" stroke-linecap="round" stroke-linejoin="round"/>
<path d="M8.51904 17.5588C8.51904 13.25 11.9829 9.78613 16.2917 9.78613C20.6005 9.78613 24.0644 13.25 24.0644 17.5588" stroke="#04BBF2" stroke-miterlimit="10" stroke-linecap="round" stroke-linejoin="round"/>
<path d="M26.5146 8.18145C27.961 8.18145 29.1336 7.00886 29.1336 5.56241C29.1336 4.11595 27.961 2.94336 26.5146 2.94336C25.0681 2.94336 23.8955 4.11595 23.8955 5.56241C23.8955 7.00886 25.0681 8.18145 26.5146 8.18145Z" stroke="white" stroke-miterlimit="10" stroke-linecap="round" stroke-linejoin="round"/>
<path d="M24.0645 10.0401C24.8248 9.7022 25.6697 9.53323 26.5145 9.53323C29.8095 9.53323 32.4285 12.1523 32.4285 15.4472" stroke="white" stroke-miterlimit="10" stroke-linecap="round" stroke-linejoin="round"/>
<path d="M6.91397 8.18146C8.36043 8.18146 9.53301 7.00887 9.53301 5.56241C9.53301 4.11595 8.36043 2.94337 6.91397 2.94337C5.46751 2.94337 4.29492 4.11595 4.29492 5.56241C4.29492 7.00887 5.46751 8.18146 6.91397 8.18146Z" stroke="white" stroke-miterlimit="10" stroke-linecap="round" stroke-linejoin="round"/>
<path d="M1 15.4472C1 12.1523 3.61905 9.53323 6.91398 9.53323C7.75883 9.53323 8.5192 9.7022 9.19508 9.95566" stroke="white" stroke-miterlimit="10" stroke-linecap="round" stroke-linejoin="round"/>
</svg>
